<?xml version="1.0" encoding="utf-8"?>
<!-- Generator: Adobe Illustrator 16.0.4, SVG Export Plug-In . SVG Version: 6.00 Build 0)  -->
<!DOCTYPE svg PUBLIC "-//W3C//DTD SVG 1.1//EN" "http://www.w3.org/Graphics/SVG/1.1/DTD/svg11.dtd">
<svg version="1.1" id="Layer_1_copy_3" xmlns="http://www.w3.org/2000/svg" xmlns:xlink="http://www.w3.org/1999/xlink" x="0px"
	 y="0px" width="197.5px" height="208.5px" viewBox="0 0 197.5 208.5" enable-background="new 0 0 197.5 208.5"
	 xml:space="preserve">
<g>
	<path fill="#E30613" d="M26.182,185.644c0,1.647,0.954,2.699,2.568,2.699h8.231c1.448,0,2.303-1.087,2.37-2.172
		c0.033-1.119-0.692-2.37-2.37-2.37h-5.86v-16.528c0-1.646-1.054-2.568-2.47-2.568s-2.469,0.922-2.469,2.568V185.644"/>
	<path fill="#E30613" d="M42.22,185.974c0,1.646,1.054,2.567,2.471,2.567c1.415,0,2.469-0.922,2.469-2.567v-18.701
		c0-1.646-1.054-2.568-2.469-2.568c-1.417,0-2.471,0.922-2.471,2.568V185.974"/>
	<path fill="#E30613" d="M51.481,185.611c-0.032,0.197-0.032,0.396-0.032,0.56c0,1.449,1.053,2.371,2.371,2.371
		c1.68,0,2.338-0.757,2.568-2.304l1.942-13.4h0.066l3.952,13.795c0.229,0.789,0.856,1.909,2.633,1.909
		c1.777,0,2.403-1.12,2.634-1.909l3.95-13.795h0.067l1.941,13.4c0.23,1.547,0.891,2.304,2.567,2.304
		c1.318,0,2.372-0.922,2.372-2.371c0-0.164,0-0.362-0.035-0.56l-3.06-18.371c-0.196-1.185-1.481-2.536-3.228-2.536
		c-1.646,0-2.93,1.186-3.293,2.371l-3.884,13.038h-0.065l-3.887-13.038c-0.361-1.185-1.646-2.371-3.291-2.371
		c-1.745,0-3.028,1.351-3.225,2.536L51.481,185.611"/>
	<path fill="#E30613" d="M81.669,185.843c0,1.546,1.118,2.5,2.635,2.5h6.782c4.541,0,7.637-2.5,7.637-7.144
		c0-2.866-2.206-5.202-5.005-5.596v-0.066c2.107-0.988,3.063-2.536,3.063-4.839c0-3.491-2.768-5.795-6.191-5.795h-6.32
		c-1.515,0-2.601,0.89-2.601,2.47V185.843 M86.608,169.249h2.566c1.447,0,2.666,0.79,2.666,2.337c0,1.646-1.054,2.601-2.666,2.601
		h-2.566V169.249z M86.608,178.532h3.489c2.306,0,3.49,1.054,3.49,2.602c0,1.844-1.318,2.865-3.095,2.865h-3.885V178.532z"/>
	<path fill="#E30613" d="M102.01,179.026c0,5.597,4.51,9.713,10.008,9.713c5.433,0,9.978-4.181,9.978-9.713v-11.753
		c0-1.646-1.055-2.568-2.469-2.568c-1.417,0-2.471,0.922-2.471,2.568v11.49c0,2.897-2.041,5.433-5.038,5.433
		c-3.126,0-5.068-2.404-5.068-5.433v-11.49c0-1.646-1.056-2.568-2.47-2.568c-1.417,0-2.47,0.922-2.47,2.568V179.026"/>
	<path fill="#E30613" d="M126.39,185.974c0,1.646,1.055,2.567,2.471,2.567c1.414,0,2.468-0.922,2.468-2.567v-7.144h0.067
		l7.308,8.856c0.525,0.625,1.317,0.855,1.909,0.855c1.448,0,2.47-1.25,2.47-2.535c0-0.461-0.197-0.955-0.658-1.449l-5.599-5.992
		c3.359-0.526,6.092-2.601,6.092-6.223c0-5.168-3.128-7.44-8.199-7.44h-5.793c-1.646,0-2.535,0.989-2.535,2.568V185.974
		 M131.328,169.445h3.39c1.812,0,3.064,1.022,3.064,2.897c0,1.844-1.252,2.931-3.064,2.931h-3.39V169.445z"/>
	<path fill="#E30613" d="M158.971,174.451c-1.25,0-2.305,0.856-2.305,2.238c0,1.35,0.955,2.305,2.305,2.305h3.357
		c0,3.753-2.994,5.201-5.597,5.201c-4.18,0-6.188-3.555-6.188-7.573c0-3.984,2.074-7.572,6.188-7.572
		c4.314,0,4.775,2.403,7.015,2.403c1.151,0,2.04-0.888,2.04-2.304c0-2.304-4.083-4.642-9.055-4.642
		c-6.716,0-11.324,5.267-11.324,12.115c0,6.816,4.643,12.116,11.324,12.116c6.586,0,10.733-4.774,10.733-11.128
		c0-2.107-0.824-3.16-2.896-3.16H158.971"/>
</g>
<g>
	<path fill="#E30613" d="M70.682,62.095h-5.466l-2.979,15.329h4.853c3.217,0,5.612-0.605,7.187-1.818
		c1.575-1.212,2.637-3.235,3.189-6.07c0.527-2.722,0.286-4.643-0.723-5.762C75.734,62.655,73.714,62.095,70.682,62.095z"/>
	<path fill="#E30613" d="M132.955,62.095h-5.467l-2.979,15.329h4.852c3.216,0,5.613-0.605,7.187-1.818
		c1.575-1.212,2.637-3.235,3.189-6.07c0.528-2.722,0.287-4.643-0.722-5.762C138.006,62.655,135.984,62.095,132.955,62.095z"/>
	<path fill="#E30613" d="M173.106,56.564l-34.244-34.338c-6.803-6.82-17.828-6.82-24.63,0l-13.453,13.848
		c-1.405,1.465-2.684,1.985-3.782,2.018c-1.1-0.033-2.4-0.553-3.807-2.018L79.737,22.226c-6.801-6.82-17.827-6.82-24.628,0
		L20.863,56.564c-6.8,6.819-6.8,17.875,0.002,24.695l63.223,63.389c3.55,3.56,8.257,5.26,12.908,5.105
		c4.648,0.155,9.337-1.545,12.888-5.105l63.222-63.389C179.907,74.439,179.907,63.384,173.106,56.564z M83.947,75
		c-0.829,1.483-1.91,2.838-3.246,4.067c-1.593,1.491-3.364,2.553-5.311,3.186c-1.947,0.635-4.428,0.951-7.443,0.951h-6.833
		l-1.894,9.737h-7.978l7.119-36.625h15.343c4.615,0,7.981,1.211,10.098,3.634c2.117,2.422,2.753,5.804,1.909,10.145
		C85.363,71.884,84.774,73.52,83.947,75z M103.989,83.204l3.148-16.206c0.358-1.843,0.229-3.1-0.396-3.771
		c-0.622-0.67-1.945-1.006-3.972-1.006h-6.326l-4.077,20.982h-7.916l7.12-36.625h7.915l-1.893,9.737h7.052
		c4.437,0,7.497,0.774,9.182,2.322c1.684,1.547,2.188,4.055,1.515,7.522l-3.311,17.043H103.989z M147.982,70.095
		c-0.348,1.789-0.935,3.425-1.763,4.905c-0.828,1.483-1.911,2.838-3.247,4.067c-1.593,1.491-3.362,2.553-5.311,3.186
		c-1.947,0.635-4.428,0.951-7.443,0.951h-6.834l-1.892,9.737h-7.978l7.116-36.625h15.343c4.615,0,7.982,1.211,10.1,3.634
		C148.189,62.373,148.825,65.754,147.982,70.095z"/>
</g>
</svg>
