<?xml version="1.0" encoding="utf-8"?>
<!-- Generator: Adobe Illustrator 16.0.4, SVG Export Plug-In . SVG Version: 6.00 Build 0)  -->
<!DOCTYPE svg PUBLIC "-//W3C//DTD SVG 1.1//EN" "http://www.w3.org/Graphics/SVG/1.1/DTD/svg11.dtd">
<svg version="1.1" xmlns="http://www.w3.org/2000/svg" xmlns:xlink="http://www.w3.org/1999/xlink" x="0px" y="0px" width="197.5px"
	 height="208.5px" viewBox="0 0 197.5 208.5" enable-background="new 0 0 197.5 208.5" xml:space="preserve">
<g id="Layer_1" display="none">
	<g display="inline">
		<path fill="#E30613" d="M173.106,56.564l-34.244-34.338c-6.803-6.82-17.828-6.82-24.63,0l-13.453,13.848
			c-1.405,1.465-2.684,1.985-3.782,2.018c-1.1-0.033-2.4-0.553-3.807-2.018L79.737,22.226c-6.801-6.82-17.827-6.82-24.628,0
			L20.863,56.564c-6.8,6.819-6.8,17.875,0.002,24.695l63.223,63.389c3.55,3.56,8.257,5.26,12.908,5.105
			c4.648,0.155,9.337-1.545,12.888-5.105l63.222-63.389C179.907,74.439,179.907,63.384,173.106,56.564"/>
		<g>
			<path fill="#E30613" d="M26.182,185.644c0,1.647,0.954,2.699,2.568,2.699h8.231c1.448,0,2.303-1.087,2.37-2.172
				c0.033-1.119-0.692-2.37-2.37-2.37h-5.86v-16.528c0-1.646-1.054-2.568-2.47-2.568s-2.469,0.922-2.469,2.568V185.644"/>
			<path fill="#E30613" d="M42.22,185.974c0,1.646,1.054,2.567,2.471,2.567c1.415,0,2.469-0.922,2.469-2.567v-18.701
				c0-1.646-1.054-2.568-2.469-2.568c-1.417,0-2.471,0.922-2.471,2.568V185.974"/>
			<path fill="#E30613" d="M51.481,185.611c-0.032,0.197-0.032,0.396-0.032,0.56c0,1.449,1.053,2.371,2.371,2.371
				c1.68,0,2.338-0.757,2.568-2.304l1.942-13.4h0.066l3.952,13.795c0.229,0.789,0.856,1.909,2.633,1.909
				c1.777,0,2.403-1.12,2.634-1.909l3.95-13.795h0.067l1.941,13.4c0.23,1.547,0.891,2.304,2.567,2.304
				c1.318,0,2.372-0.922,2.372-2.371c0-0.164,0-0.362-0.035-0.56l-3.06-18.371c-0.196-1.185-1.481-2.536-3.228-2.536
				c-1.646,0-2.93,1.186-3.293,2.371l-3.884,13.038h-0.065l-3.887-13.038c-0.361-1.185-1.646-2.371-3.291-2.371
				c-1.745,0-3.028,1.351-3.225,2.536L51.481,185.611"/>
			<path fill="#E30613" d="M81.669,185.843c0,1.546,1.118,2.5,2.635,2.5h6.782c4.541,0,7.637-2.5,7.637-7.144
				c0-2.866-2.206-5.202-5.005-5.596v-0.066c2.107-0.988,3.063-2.536,3.063-4.839c0-3.491-2.768-5.795-6.191-5.795h-6.32
				c-1.515,0-2.601,0.89-2.601,2.47V185.843 M86.608,169.249h2.566c1.447,0,2.666,0.79,2.666,2.337c0,1.646-1.054,2.601-2.666,2.601
				h-2.566V169.249z M86.608,178.532h3.489c2.306,0,3.49,1.054,3.49,2.602c0,1.844-1.318,2.865-3.095,2.865h-3.885V178.532z"/>
			<path fill="#E30613" d="M102.01,179.026c0,5.597,4.51,9.713,10.008,9.713c5.433,0,9.978-4.181,9.978-9.713v-11.753
				c0-1.646-1.055-2.568-2.469-2.568c-1.417,0-2.471,0.922-2.471,2.568v11.49c0,2.897-2.041,5.433-5.038,5.433
				c-3.126,0-5.068-2.404-5.068-5.433v-11.49c0-1.646-1.056-2.568-2.47-2.568c-1.417,0-2.47,0.922-2.47,2.568V179.026"/>
			<path fill="#E30613" d="M126.39,185.974c0,1.646,1.055,2.567,2.471,2.567c1.414,0,2.468-0.922,2.468-2.567v-7.144h0.067
				l7.308,8.856c0.525,0.625,1.317,0.855,1.909,0.855c1.448,0,2.47-1.25,2.47-2.535c0-0.461-0.197-0.955-0.658-1.449l-5.599-5.992
				c3.359-0.526,6.092-2.601,6.092-6.223c0-5.168-3.128-7.44-8.199-7.44h-5.793c-1.646,0-2.535,0.989-2.535,2.568V185.974
				 M131.328,169.445h3.39c1.812,0,3.064,1.022,3.064,2.897c0,1.844-1.252,2.931-3.064,2.931h-3.39V169.445z"/>
			<path fill="#E30613" d="M158.971,174.451c-1.25,0-2.305,0.856-2.305,2.238c0,1.35,0.955,2.305,2.305,2.305h3.357
				c0,3.753-2.994,5.201-5.597,5.201c-4.18,0-6.188-3.555-6.188-7.573c0-3.984,2.074-7.572,6.188-7.572
				c4.314,0,4.775,2.403,7.015,2.403c1.151,0,2.04-0.888,2.04-2.304c0-2.304-4.083-4.642-9.055-4.642
				c-6.716,0-11.324,5.267-11.324,12.115c0,6.816,4.643,12.116,11.324,12.116c6.586,0,10.733-4.774,10.733-11.128
				c0-2.107-0.824-3.16-2.896-3.16H158.971"/>
		</g>
	</g>
	<g display="inline">
		<path fill="#FFFFFF" d="M51.243,92.941h7.978l1.894-9.737h6.833c3.016,0,5.496-0.316,7.443-0.951
			c1.946-0.632,3.718-1.695,5.311-3.186c1.336-1.229,2.417-2.584,3.246-4.067c0.827-1.48,1.416-3.116,1.764-4.905
			c0.844-4.341,0.208-7.723-1.909-10.145c-2.116-2.422-5.482-3.634-10.098-3.634H58.361L51.243,92.941 M70.682,62.095
			c3.032,0,5.053,0.56,6.062,1.679c1.009,1.119,1.25,3.04,0.723,5.762c-0.553,2.835-1.614,4.858-3.189,6.07
			c-1.574,1.213-3.97,1.818-7.187,1.818h-4.853l2.979-15.329H70.682z"/>
		<path fill="#FFFFFF" d="M91.571,46.579h7.915l-1.893,9.737h7.052c4.437,0,7.497,0.774,9.182,2.322
			c1.684,1.547,2.188,4.055,1.515,7.522l-3.311,17.043h-8.042l3.148-16.206c0.358-1.843,0.229-3.1-0.396-3.771
			c-0.622-0.67-1.945-1.006-3.972-1.006h-6.326l-4.077,20.982h-7.916L91.571,46.579"/>
		<path fill="#FFFFFF" d="M113.516,92.941h7.978l1.892-9.737h6.834c3.016,0,5.496-0.316,7.443-0.951
			c1.948-0.632,3.718-1.695,5.311-3.186c1.336-1.229,2.419-2.584,3.247-4.067c0.828-1.48,1.415-3.116,1.763-4.905
			c0.843-4.341,0.207-7.723-1.908-10.145c-2.117-2.422-5.484-3.634-10.1-3.634h-15.343L113.516,92.941 M132.955,62.095
			c3.029,0,5.051,0.56,6.061,1.679c1.009,1.119,1.25,3.04,0.722,5.762c-0.553,2.835-1.614,4.858-3.189,6.07
			c-1.573,1.213-3.971,1.818-7.187,1.818h-4.852l2.979-15.329H132.955z"/>
	</g>
</g>
<g id="Layer_1_copy" display="none">
	<path display="inline" fill="#E30613" d="M190.102,190.5c0,6.627-5.373,12-12,12H17.575c-6.627,0-12-5.373-12-12V18
		c0-6.627,5.373-12,12-12h160.527c6.627,0,12,5.373,12,12V190.5z"/>
	<path display="inline" fill="#FFFFFF" d="M173.959,56.564l-34.244-34.338c-6.803-6.82-17.828-6.82-24.63,0l-13.453,13.848
		c-1.405,1.465-2.684,1.985-3.782,2.018c-1.1-0.033-2.4-0.553-3.807-2.018L80.59,22.226c-6.801-6.82-17.827-6.82-24.627,0
		L21.716,56.564c-6.8,6.819-6.8,17.875,0.002,24.695l63.222,63.389c3.55,3.56,8.257,5.26,12.908,5.105
		c4.648,0.155,9.337-1.545,12.888-5.105l63.222-63.389C180.76,74.439,180.76,63.384,173.959,56.564"/>
	<g display="inline">
		<path fill="#FFFFFF" d="M27.035,185.644c0,1.647,0.954,2.699,2.568,2.699h8.231c1.448,0,2.303-1.087,2.37-2.172
			c0.033-1.119-0.692-2.37-2.37-2.37h-5.86v-16.528c0-1.646-1.054-2.568-2.47-2.568s-2.469,0.922-2.469,2.568V185.644"/>
		<path fill="#FFFFFF" d="M43.073,185.974c0,1.646,1.054,2.567,2.471,2.567c1.415,0,2.469-0.922,2.469-2.567v-18.701
			c0-1.646-1.054-2.568-2.469-2.568c-1.417,0-2.471,0.922-2.471,2.568V185.974"/>
		<path fill="#FFFFFF" d="M52.334,185.611c-0.032,0.197-0.032,0.396-0.032,0.56c0,1.449,1.053,2.371,2.371,2.371
			c1.68,0,2.338-0.757,2.568-2.304l1.942-13.4h0.066l3.951,13.795c0.229,0.789,0.856,1.909,2.633,1.909
			c1.777,0,2.403-1.12,2.634-1.909l3.95-13.795h0.067l1.941,13.4c0.23,1.547,0.891,2.304,2.567,2.304
			c1.318,0,2.372-0.922,2.372-2.371c0-0.164,0-0.362-0.035-0.56l-3.06-18.371c-0.196-1.185-1.481-2.536-3.228-2.536
			c-1.646,0-2.93,1.186-3.293,2.371l-3.884,13.038H65.8l-3.887-13.038c-0.361-1.185-1.646-2.371-3.291-2.371
			c-1.745,0-3.028,1.351-3.225,2.536L52.334,185.611"/>
		<path fill="#FFFFFF" d="M82.521,185.843c0,1.546,1.118,2.5,2.635,2.5h6.782c4.541,0,7.637-2.5,7.637-7.144
			c0-2.866-2.206-5.202-5.005-5.596v-0.066c2.107-0.988,3.063-2.536,3.063-4.839c0-3.491-2.768-5.795-6.191-5.795h-6.32
			c-1.515,0-2.601,0.89-2.601,2.47V185.843 M87.461,169.249h2.566c1.447,0,2.666,0.79,2.666,2.337c0,1.646-1.054,2.601-2.666,2.601
			h-2.566V169.249z M87.461,178.532h3.489c2.306,0,3.49,1.054,3.49,2.602c0,1.844-1.318,2.865-3.095,2.865h-3.885V178.532z"/>
		<path fill="#FFFFFF" d="M102.862,179.026c0,5.597,4.51,9.713,10.008,9.713c5.433,0,9.978-4.181,9.978-9.713v-11.753
			c0-1.646-1.055-2.568-2.469-2.568c-1.417,0-2.471,0.922-2.471,2.568v11.49c0,2.897-2.041,5.433-5.038,5.433
			c-3.126,0-5.068-2.404-5.068-5.433v-11.49c0-1.646-1.056-2.568-2.47-2.568c-1.417,0-2.47,0.922-2.47,2.568V179.026"/>
		<path fill="#FFFFFF" d="M127.242,185.974c0,1.646,1.055,2.567,2.471,2.567c1.414,0,2.468-0.922,2.468-2.567v-7.144h0.067
			l7.308,8.856c0.525,0.625,1.317,0.855,1.909,0.855c1.448,0,2.47-1.25,2.47-2.535c0-0.461-0.197-0.955-0.658-1.449l-5.599-5.992
			c3.359-0.526,6.092-2.601,6.092-6.223c0-5.168-3.128-7.44-8.199-7.44h-5.793c-1.646,0-2.535,0.989-2.535,2.568V185.974
			 M132.181,169.445h3.39c1.812,0,3.064,1.022,3.064,2.897c0,1.844-1.252,2.931-3.064,2.931h-3.39V169.445z"/>
		<path fill="#FFFFFF" d="M159.823,174.451c-1.25,0-2.305,0.856-2.305,2.238c0,1.35,0.955,2.305,2.305,2.305h3.357
			c0,3.753-2.994,5.201-5.597,5.201c-4.18,0-6.188-3.555-6.188-7.573c0-3.984,2.074-7.572,6.188-7.572
			c4.314,0,4.775,2.403,7.015,2.403c1.151,0,2.04-0.888,2.04-2.304c0-2.304-4.083-4.642-9.055-4.642
			c-6.716,0-11.324,5.267-11.324,12.115c0,6.816,4.643,12.116,11.324,12.116c6.586,0,10.733-4.774,10.733-11.128
			c0-2.107-0.824-3.16-2.896-3.16H159.823"/>
	</g>
	<g display="inline">
		<path fill="#E30613" d="M49.288,92.941h7.978l1.894-9.737h6.833c3.016,0,5.496-0.316,7.443-0.951
			c1.946-0.632,3.718-1.695,5.311-3.186c1.336-1.229,2.417-2.584,3.246-4.067c0.827-1.48,1.416-3.116,1.764-4.905
			c0.844-4.341,0.208-7.723-1.909-10.145c-2.116-2.422-5.482-3.634-10.098-3.634H56.407L49.288,92.941 M68.728,62.095
			c3.032,0,5.053,0.56,6.062,1.679c1.009,1.119,1.25,3.04,0.723,5.762c-0.553,2.835-1.614,4.858-3.189,6.07
			c-1.574,1.213-3.97,1.818-7.187,1.818h-4.853l2.979-15.329H68.728z"/>
		<path fill="#E30613" d="M89.617,46.579h7.915l-1.893,9.737h7.052c4.437,0,7.497,0.774,9.182,2.322
			c1.684,1.547,2.188,4.055,1.515,7.522l-3.311,17.043h-8.042l3.148-16.206c0.358-1.843,0.229-3.1-0.396-3.771
			c-0.622-0.67-1.945-1.006-3.972-1.006H94.49l-4.077,20.982h-7.916L89.617,46.579"/>
		<path fill="#E30613" d="M111.562,92.941h7.978l1.892-9.737h6.834c3.016,0,5.496-0.316,7.443-0.951
			c1.948-0.632,3.718-1.695,5.311-3.186c1.336-1.229,2.419-2.584,3.247-4.067c0.828-1.48,1.415-3.116,1.763-4.905
			c0.843-4.341,0.207-7.723-1.908-10.145c-2.117-2.422-5.484-3.634-10.1-3.634h-15.343L111.562,92.941 M131.001,62.095
			c3.029,0,5.051,0.56,6.061,1.679c1.009,1.119,1.25,3.04,0.722,5.762c-0.553,2.835-1.614,4.858-3.189,6.07
			c-1.573,1.213-3.971,1.818-7.187,1.818h-4.852l2.979-15.329H131.001z"/>
	</g>
</g>
<g id="Layer_1_copy_2">
	<g>
		<path fill="#E30613" d="M90.95,178.532h-3.489v5.467h3.885c1.776,0,3.095-1.021,3.095-2.865
			C94.44,179.586,93.256,178.532,90.95,178.532z"/>
		<path fill="#E30613" d="M178.102,6H17.575c-6.627,0-12,5.373-12,12v172.5c0,6.627,5.373,12,12,12h160.527c6.627,0,12-5.373,12-12
			V18C190.102,11.373,184.729,6,178.102,6z M37.834,188.343h-8.231c-1.614,0-2.568-1.052-2.568-2.699v-18.371
			c0-1.646,1.054-2.568,2.469-2.568s2.47,0.922,2.47,2.568v16.528h5.86c1.678,0,2.403,1.251,2.37,2.37
			C40.137,187.256,39.282,188.343,37.834,188.343z M48.013,185.974c0,1.646-1.054,2.567-2.469,2.567
			c-1.417,0-2.471-0.922-2.471-2.567v-18.701c0-1.646,1.054-2.568,2.471-2.568c1.415,0,2.469,0.922,2.469,2.568V185.974z
			 M76.992,188.542c-1.677,0-2.337-0.757-2.567-2.304l-1.941-13.4h-0.067l-3.95,13.795c-0.23,0.789-0.856,1.909-2.634,1.909
			c-1.776,0-2.403-1.12-2.633-1.909l-3.951-13.795h-0.066l-1.942,13.4c-0.23,1.547-0.888,2.304-2.568,2.304
			c-1.317,0-2.371-0.922-2.371-2.371c0-0.164,0-0.362,0.032-0.56l3.063-18.371c0.197-1.185,1.48-2.536,3.225-2.536
			c1.645,0,2.929,1.186,3.291,2.371l3.887,13.038h0.065l3.884-13.038c0.363-1.185,1.647-2.371,3.293-2.371
			c1.746,0,3.031,1.351,3.228,2.536l3.06,18.371c0.035,0.197,0.035,0.396,0.035,0.56C79.364,187.62,78.311,188.542,76.992,188.542z
			 M91.938,188.343h-6.782c-1.517,0-2.635-0.955-2.635-2.5v-18.471c0-1.58,1.086-2.47,2.601-2.47h6.32
			c3.424,0,6.191,2.304,6.191,5.795c0,2.304-0.956,3.852-3.063,4.839v0.066c2.799,0.395,5.005,2.73,5.005,5.596
			C99.575,185.843,96.479,188.343,91.938,188.343z M122.848,179.026c0,5.532-4.545,9.713-9.978,9.713
			c-5.498,0-10.008-4.117-10.008-9.713v-11.753c0-1.646,1.053-2.568,2.47-2.568c1.414,0,2.47,0.922,2.47,2.568v11.49
			c0,3.029,1.942,5.433,5.068,5.433c2.997,0,5.038-2.535,5.038-5.433v-11.49c0-1.646,1.054-2.568,2.471-2.568
			c1.414,0,2.469,0.922,2.469,2.568V179.026z M141.465,188.542c-0.592,0-1.384-0.23-1.909-0.855l-7.308-8.856h-0.067v7.144
			c0,1.646-1.054,2.567-2.468,2.567c-1.416,0-2.471-0.922-2.471-2.567v-18.503c0-1.58,0.89-2.568,2.535-2.568h5.793
			c5.071,0,8.199,2.272,8.199,7.44c0,3.622-2.732,5.697-6.092,6.223l5.599,5.992c0.461,0.494,0.658,0.987,0.658,1.449
			C143.935,187.291,142.913,188.542,141.465,188.542z M157.584,188.739c-6.682,0-11.324-5.3-11.324-12.116
			c0-6.848,4.608-12.115,11.324-12.115c4.972,0,9.055,2.338,9.055,4.642c0,1.416-0.889,2.304-2.04,2.304
			c-2.239,0-2.7-2.403-7.015-2.403c-4.114,0-6.188,3.588-6.188,7.572c0,4.018,2.009,7.573,6.188,7.573
			c2.603,0,5.597-1.448,5.597-5.201h-3.357c-1.35,0-2.305-0.955-2.305-2.305c0-1.382,1.055-2.238,2.305-2.238h5.598
			c2.072,0,2.896,1.053,2.896,3.16C168.317,183.965,164.17,188.739,157.584,188.739z M173.958,81.259l-63.222,63.389
			c-3.551,3.56-8.239,5.26-12.888,5.105c-4.651,0.155-9.358-1.545-12.908-5.105L21.718,81.259
			c-6.802-6.82-6.802-17.875-0.002-24.695l34.246-34.338c6.8-6.82,17.827-6.82,24.627,0l13.453,13.848
			c1.406,1.465,2.707,1.985,3.807,2.018c1.099-0.033,2.377-0.553,3.782-2.018l13.453-13.848c6.802-6.82,17.827-6.82,24.63,0
			l34.244,34.338C180.76,63.384,180.76,74.439,173.958,81.259z"/>
		<path fill="#E30613" d="M92.693,171.586c0-1.548-1.219-2.337-2.666-2.337h-2.566v4.938h2.566
			C91.64,174.187,92.693,173.232,92.693,171.586z"/>
		<path fill="#E30613" d="M138.635,172.343c0-1.875-1.252-2.897-3.064-2.897h-3.39v5.828h3.39
			C137.383,175.273,138.635,174.187,138.635,172.343z"/>
	</g>
	<g>
		<path fill="#E30613" d="M49.288,92.941h7.978l1.894-9.737h6.833c3.016,0,5.496-0.316,7.443-0.951
			c1.946-0.632,3.718-1.695,5.311-3.186c1.336-1.229,2.417-2.584,3.246-4.067c0.827-1.48,1.416-3.116,1.764-4.905
			c0.844-4.341,0.208-7.723-1.909-10.145c-2.116-2.422-5.482-3.634-10.098-3.634H56.407L49.288,92.941 M68.728,62.095
			c3.032,0,5.053,0.56,6.062,1.679c1.009,1.119,1.25,3.04,0.723,5.762c-0.553,2.835-1.614,4.858-3.189,6.07
			c-1.574,1.213-3.97,1.818-7.187,1.818h-4.853l2.979-15.329H68.728z"/>
		<path fill="#E30613" d="M89.617,46.579h7.915l-1.893,9.737h7.052c4.437,0,7.497,0.774,9.182,2.322
			c1.684,1.547,2.188,4.055,1.515,7.522l-3.311,17.043h-8.042l3.148-16.206c0.358-1.843,0.229-3.1-0.396-3.771
			c-0.622-0.67-1.945-1.006-3.972-1.006H94.49l-4.077,20.982h-7.916L89.617,46.579"/>
		<path fill="#E30613" d="M111.562,92.941h7.978l1.892-9.737h6.834c3.016,0,5.496-0.316,7.443-0.951
			c1.948-0.632,3.718-1.695,5.311-3.186c1.336-1.229,2.419-2.584,3.247-4.067c0.828-1.48,1.415-3.116,1.763-4.905
			c0.843-4.341,0.207-7.723-1.908-10.145c-2.117-2.422-5.484-3.634-10.1-3.634h-15.343L111.562,92.941 M131.001,62.095
			c3.029,0,5.051,0.56,6.061,1.679c1.009,1.119,1.25,3.04,0.722,5.762c-0.553,2.835-1.614,4.858-3.189,6.07
			c-1.573,1.213-3.971,1.818-7.187,1.818h-4.852l2.979-15.329H131.001z"/>
	</g>
</g>
</svg>
